# xmcd
#
# Track frame offsets:
#   150
#   12786
#   28254
#   44871
#   64432
#   85411
#   98874
#   116491
#   134343
#   150908
#   170685
#   184694
#   199336
#   216008
#   232821
#   254723
#   274038
#   288274
#   305073
#   327918
#   344748
#
# Disc length: 4774 seconds
#
# Revision: 0
# Processed by: cddbd v1.5.1PL0 Copyright (c) Steve Scherf et al.
# Submitted via: Media_Universe 3.0
#
DISCID=4312a415
DTITLE=Trisha Yearwood - Harts Armor and Everybody Knows
DYEAR=1900
DGENRE=Country
TTITLE0=Wrong Side Of Memphis
TTITLE1=Nearest Distant Shore
TTITLE2=You Say You Will
TTITLE3=Walkaway Joe
TTITLE4=Woman Walk The Line
TTITLE5=Oh Lonesome You
TTITLE6=Down On My Knees
TTITLE7=For Reasons Ive Forgotten
TTITLE8=You Dont Have To Move That Mountain
TTITLE9=Hearts Armor
TTITLE10=I Want To Live Again
TTITLE11=It's Alright
TTITLE12=Believe Me Baby (I Lied)
TTITLE13=I Need You
TTITLE14=Little Hercules
TTITLE15=Under The Rainbow
TTITLE16=Everybody Knows
TTITLE17=Hello I'm Gone
TTITLE18=Maybe It's Love
TTITLE19=A Lover Is Forever
TTITLE20=To Make You Feel My Love
EXTD=
EXTT0=
EXTT1=
EXTT2=
EXTT3=
EXTT4=
EXTT5=
EXTT6=
EXTT7=
EXTT8=
EXTT9=
EXTT10=
EXTT11=
EXTT12=
EXTT13=
EXTT14=
EXTT15=
EXTT16=
EXTT17=
EXTT18=
EXTT19=
EXTT20=
PLAYORDER=
